<svg width="32" height="32" viewBox="0 0 32 32" fill="none" xmlns="http://www.w3.org/2000/svg">
<g clip-path="url(#clip0_28_375)">
<path d="M23.977 14.1638C23.9219 13.9941 23.7752 13.8705 23.5986 13.8448L18.6386 13.124L16.4204 8.62944C16.3414 8.46945 16.1784 8.36816 16 8.36816C15.8216 8.36816 15.6586 8.46948 15.5797 8.62944L13.3613 13.1241L8.40134 13.8448C8.22478 13.8705 8.07809 13.9942 8.02297 14.1638C7.96781 14.3335 8.01381 14.5198 8.14156 14.6443L11.7306 18.1429L10.8834 23.083C10.8533 23.2589 10.9256 23.4366 11.0699 23.5414C11.2142 23.6463 11.4056 23.6601 11.5636 23.5771L16 21.2448L20.4362 23.5772C20.5048 23.6132 20.5797 23.631 20.6543 23.631C20.7515 23.631 20.8483 23.6008 20.9299 23.5415C21.0742 23.4366 21.1466 23.2589 21.1164 23.083L20.269 18.1429L23.8584 14.6444C23.9862 14.5198 24.0322 14.3335 23.977 14.1638ZM19.4382 17.6436C19.3277 17.7513 19.2773 17.9065 19.3034 18.0585L20.0318 22.3053L16.2182 20.3003C16.0816 20.2285 15.9184 20.2285 15.7819 20.3003L11.968 22.3054L12.6962 18.0585C12.7223 17.9064 12.6719 17.7513 12.5615 17.6436L9.47612 14.636L13.74 14.0163C13.8927 13.9942 14.0246 13.8983 14.093 13.7599L16 9.89601L17.9069 13.7599C17.9753 13.8982 18.1072 13.9942 18.2599 14.0163L22.5238 14.636L19.4382 17.6436Z" fill="#086CF9"/>
</g>
<circle cx="16" cy="16" r="15.7" stroke="#C8C8C8" stroke-width="0.6"/>
<defs>
<clipPath id="clip0_28_375">
<rect width="16" height="16" fill="white" transform="translate(8 8)"/>
</clipPath>
</defs>
</svg>
