<svg width="17" height="16" viewBox="0 0 17 16" fill="none" xmlns="http://www.w3.org/2000/svg">
<g clip-path="url(#clip0_28_256)">
<path d="M8.5 0C4.08888 0 0.5 3.58888 0.5 8C0.5 12.4111 4.08888 16 8.5 16C12.9111 16 16.5 12.4111 16.5 8C16.5 3.58888 12.9111 0 8.5 0ZM8.5 15C4.64013 15 1.5 11.8599 1.5 8C1.5 4.14013 4.64013 1 8.5 1C12.3599 1 15.5 4.14013 15.5 8C15.5 11.8599 12.3599 15 8.5 15Z" fill="black"/>
<path d="M9 3.00049H8V8.20751L11.1465 11.354L11.8535 10.647L9 7.79344V3.00049Z" fill="black"/>
</g>
<defs>
<clipPath id="clip0_28_256">
<rect width="16" height="16" fill="white" transform="translate(0.5)"/>
</clipPath>
</defs>
</svg>
